<svg xmlns="http://www.w3.org/2000/svg" version="1.1" xmlns:xlink="http://www.w3.org/1999/xlink" xmlns:svgjs="http://svgjs.dev/svgjs" width="2000" height="1500" viewBox="0 0 2000 1500"><rect width="2000" height="1500" fill="#fafafa"></rect><g transform="matrix(0.75,0,0,0.75,249.090909090909,282.7536437246963)"><svg viewBox="0 0 396 247" data-background-color="#fafafa" preserveAspectRatio="xMidYMid meet" height="1247" width="2000" xmlns="http://www.w3.org/2000/svg" xmlns:xlink="http://www.w3.org/1999/xlink"><g id="tight-bounds" transform="matrix(1,0,0,1,0.2400000000000091,-0.09999999999999432)"><svg viewBox="0 0 395.52 247.2" height="247.2" width="395.52"><g><svg></svg></g><g><svg viewBox="0 0 395.52 247.2" height="247.2" width="395.52"><g transform="matrix(1,0,0,1,75.54432,60.78317278911565)"><svg viewBox="0 0 244.43135999999998 125.63365442176868" height="125.63365442176868" width="244.43135999999998"><g><svg viewBox="0 0 244.43135999999998 125.63365442176868" height="125.63365442176868" width="244.43135999999998"><g><svg viewBox="0 0 244.43135999999998 125.63365442176868" height="125.63365442176868" width="244.43135999999998"><g><svg viewBox="0 0 244.43135999999998 125.63365442176868" height="125.63365442176868" width="244.43135999999998"><g id="textblocktransform"><svg viewBox="0 0 244.43135999999998 125.63365442176868" height="125.63365442176868" width="244.43135999999998" id="textblock"><g><svg viewBox="0 0 244.43135999999998 125.63365442176868" height="125.63365442176868" width="244.43135999999998"><g transform="matrix(1,0,0,1,0,0)"><svg width="244.43135999999998" viewBox="4.25 -33.25 66.15 34" height="125.63365442176868" data-palette-color="#130912"><path d="M17.25-13.5L11.65-13.5 11.65-16.5 20.75-16.5 20.75 0 19.25 0 17.95-3.2Q16.9-1.4 15.2-0.33 13.5 0.75 11.5 0.75L11.5 0.75Q4.25 0.75 4.25-6.25L4.25-6.25 4.25-26.25Q4.25-29.6 6.3-31.43 8.35-33.25 12.45-33.25 16.55-33.25 18.65-31.43 20.75-29.6 20.75-26.25L20.75-26.25 20.75-23.5 17.25-23.5 17.25-26.25Q17.25-30.25 12.5-30.25 7.75-30.25 7.75-26.25L7.75-26.25 7.75-6.25Q7.75-4.35 8.55-3.3 9.35-2.25 11.48-2.25 13.6-2.25 15.43-3.95 17.25-5.65 17.25-7.25L17.25-7.25 17.25-13.5ZM42.25-6.25L42.25-6.25 42.25-9 45.75-9 45.75-6.25Q45.75-2.9 43.7-1.07 41.65 0.75 37.55 0.75 33.45 0.75 31.35-1.07 29.25-2.9 29.25-6.25L29.25-6.25 29.25-26.25Q29.25-29.6 31.3-31.43 33.35-33.25 37.45-33.25 41.55-33.25 43.65-31.43 45.75-29.6 45.75-26.25L45.75-26.25 45.75-21.5 42.25-21.5 42.25-26.25Q42.25-30.25 37.5-30.25 32.75-30.25 32.75-26.25L32.75-26.25 32.75-6.25Q32.75-2.25 37.5-2.25 42.25-2.25 42.25-6.25ZM70.4-6.25L70.4-6.25Q70.4 0.75 61.95 0.75 53.5 0.75 53.5-6.25L53.5-6.25 53.5-10.5 57-10.5 57-6.05Q57-4.25 58.25-3.25 59.5-2.25 61.95-2.25 64.4-2.25 65.65-3.25 66.9-4.25 66.9-5.98 66.9-7.7 66.52-8.72 66.15-9.75 65-10.9L65-10.9 56.2-19.5Q54.65-21.05 54.07-22.53 53.5-24 53.5-26.25L53.5-26.25Q53.5-29.6 55.57-31.43 57.65-33.25 61.85-33.25L61.85-33.25Q69.9-33.25 69.9-26.25L69.9-26.25 69.9-22 66.4-22 66.4-26.45Q66.4-28.25 65.22-29.25 64.05-30.25 61.7-30.25 59.35-30.25 58.17-29.25 57-28.25 57-26.5 57-24.75 57.35-23.75 57.7-22.75 58.9-21.65L58.9-21.65 67.84-13.05Q69.3-11.45 69.84-9.98 70.4-8.5 70.4-6.25Z" opacity="1" transform="matrix(1,0,0,1,0,0)" fill="#130912" class="wordmark-text-0" data-fill-palette-color="primary" id="text-0"></path></svg></g></svg></g></svg></g></svg></g></svg></g></svg></g></svg></g><path d="M242.702 54.783L242.702 7.898 11.299 7.898 11.299 239.302 242.702 239.302 242.702 192.417 231.372 192.417 231.372 227.972 22.629 227.972 22.629 19.228 231.372 19.228 231.372 54.783Z" fill="#130912" stroke="transparent" data-fill-palette-color="tertiary"></path></svg></g><defs></defs></svg><rect width="395.52" height="247.2" fill="none" stroke="none" visibility="hidden"></rect></g></svg></g></svg>